<svg data-v-423bf9ae="" xmlns="http://www.w3.org/2000/svg" viewBox="0 0 722 106" class="iconLeft"><!----><!----><!----><g data-v-423bf9ae="" id="0e28b6d1-bfdb-4d85-b67f-05be053e77fc" fill="black" transform="matrix(5.623242696436797,0,0,5.623242696436797,152.60293329253693,10.296801566379024)"><path d="M0.17 2.95L5.74 2.95L5.74 4.63L3.92 4.63L3.92 12.75L1.99 12.75L1.99 4.63L0.17 4.63L0.17 2.95ZM6.05 10.61L6.05 5.21L7.90 5.21L7.90 10.42L7.90 10.42Q7.90 10.65 8.12 10.91L8.12 10.91L8.12 10.91Q8.34 11.17 8.54 11.17L8.54 11.17L8.54 11.17Q8.74 11.17 9.35 10.60L9.35 10.60L9.35 5.21L11.20 5.21L11.20 12.75L9.77 12.75L9.60 11.93L9.60 11.93Q8.55 12.92 8.13 12.92L8.13 12.92L8.13 12.92Q7.71 12.92 6.88 12.14L6.88 12.14L6.88 12.14Q6.05 11.37 6.05 10.61L6.05 10.61ZM14.73 7.38L14.73 12.75L12.88 12.75L12.88 7.92L12.88 7.92Q12.88 7.21 12.71 6.81L12.71 6.81L12.71 6.81Q12.53 6.41 12.18 6.12L12.18 6.12L13.72 5.04L13.72 5.04Q14.22 5.46 14.49 6.02L14.49 6.02L14.49 6.02Q15.53 5.04 15.95 5.04L15.95 5.04L15.95 5.04Q16.23 5.04 16.80 5.56L16.80 5.56L16.80 5.56Q17.37 6.08 17.47 6.69L17.47 6.69L15.97 7.77L15.97 7.77Q15.96 7.43 15.81 7.11L15.81 7.11L15.81 7.11Q15.67 6.79 15.55 6.79L15.55 6.79L15.55 6.79Q15.32 6.79 14.73 7.38L14.73 7.38ZM20.09 7.66L20.09 12.75L18.24 12.75L18.24 5.11L18.24 5.11Q18.24 4.40 18.07 4.02L18.07 4.02L18.07 4.02Q17.91 3.64 17.54 3.33L17.54 3.33L19.08 2.25L19.08 2.25Q20.09 3.05 20.09 4.51L20.09 4.51L20.09 6.10L20.09 6.10Q21.18 5.04 21.55 5.04L21.55 5.04L21.55 5.04Q21.91 5.04 22.83 5.84L22.83 5.84L22.83 5.84Q23.76 6.64 23.79 7.08L23.79 7.08L23.79 7.08Q23.79 7.41 23.34 8.18L23.34 8.18L23.34 8.18Q22.90 8.95 22.50 9.35L22.50 9.35L22.50 9.35Q23.52 10.61 23.80 11.69L23.80 11.69L22.04 12.92L22.04 12.92Q21.71 11.79 21.36 11.04L21.36 11.04L21.36 11.04Q21.01 10.29 20.38 9.63L20.38 9.63L20.38 9.14L20.38 9.14Q20.82 8.83 21.31 8.24L21.31 8.24L21.31 8.24Q21.80 7.64 21.87 7.32L21.87 7.32L21.87 7.32Q21.48 6.79 21.20 6.79L21.20 6.79L21.20 6.79Q21.04 6.79 20.69 7.09L20.69 7.09L20.69 7.09Q20.33 7.39 20.09 7.66L20.09 7.66ZM24.93 10.65L24.93 5.21L26.78 5.21L26.78 10.05L26.78 10.05Q26.78 10.77 26.95 11.16L26.95 11.16L26.95 11.16Q27.12 11.55 27.48 11.84L27.48 11.84L25.94 12.92L25.94 12.92Q24.93 12.12 24.93 10.65L24.93 10.65ZM25.89 2.28L25.89 2.28L25.89 2.28Q26.04 2.28 26.57 2.74L26.57 2.74L26.57 2.74Q27.10 3.19 27.10 3.35L27.10 3.35L27.10 3.35Q27.10 3.51 26.57 3.98L26.57 3.98L26.57 3.98Q26.03 4.44 25.88 4.44L25.88 4.44L25.88 4.44Q25.73 4.44 25.20 3.98L25.20 3.98L25.20 3.98Q24.67 3.53 24.67 3.37L24.67 3.37L24.67 3.37Q24.67 3.21 25.21 2.74L25.21 2.74L25.21 2.74Q25.75 2.28 25.89 2.28ZM32.90 10.49L32.90 10.49L32.90 10.49Q32.90 10.92 31.82 11.92L31.82 11.92L31.82 11.92Q30.74 12.92 30.22 12.92L30.22 12.92L30.22 12.92Q29.69 12.92 28.92 12.40L28.92 12.40L28.92 12.40Q28.14 11.89 27.76 11.19L27.76 11.19L29.20 10.19L29.20 10.19Q29.90 11.17 30.23 11.17L30.23 11.17L30.23 11.17Q30.46 11.17 30.81 10.93L30.81 10.93L30.81 10.93Q31.16 10.70 31.16 10.49L31.16 10.49L31.16 10.49Q31.16 10.43 30.83 10.24L30.83 10.24L30.83 10.24Q30.49 10.05 30.01 9.77L30.01 9.77L30.01 9.77Q29.53 9.48 29.05 9.12L29.05 9.12L29.05 9.12Q28.57 8.76 28.24 8.25L28.24 8.25L28.24 8.25Q27.90 7.73 27.90 7.20L27.90 7.20L27.90 7.20Q27.90 6.66 28.85 5.85L28.85 5.85L28.85 5.85Q29.81 5.04 30.32 5.04L30.32 5.04L30.32 5.04Q30.83 5.04 31.61 5.56L31.61 5.56L31.61 5.56Q32.38 6.08 32.76 6.78L32.76 6.78L31.32 7.77L31.32 7.77Q30.62 6.79 30.30 6.79L30.30 6.79L30.30 6.79Q30.13 6.79 29.88 6.98L29.88 6.98L29.88 6.98Q29.64 7.17 29.64 7.32L29.64 7.32L29.64 7.32Q29.64 7.48 30.15 7.80L30.15 7.80L30.15 7.80Q30.66 8.12 31.27 8.46L31.27 8.46L31.27 8.46Q31.88 8.81 32.39 9.36L32.39 9.36L32.39 9.36Q32.90 9.91 32.90 10.49ZM35.94 7.38L35.94 12.75L34.09 12.75L34.09 5.11L34.09 5.11Q34.09 4.40 33.92 4.02L33.92 4.02L33.92 4.02Q33.75 3.64 33.39 3.33L33.39 3.33L34.93 2.25L34.93 2.25Q35.94 3.05 35.94 4.51L35.94 4.51L35.94 5.81L35.94 5.81Q36.81 5.04 37.20 5.04L37.20 5.04L37.20 5.04Q37.59 5.04 38.45 5.82L38.45 5.82L38.45 5.82Q39.31 6.59 39.31 7.35L39.31 7.35L39.31 10.05L39.31 10.05Q39.31 10.77 39.48 11.16L39.48 11.16L39.48 11.16Q39.65 11.55 40.01 11.84L40.01 11.84L38.47 12.92L38.47 12.92Q37.46 12.12 37.46 10.65L37.46 10.65L37.46 7.55L37.46 7.55Q37.46 7.31 37.21 7.05L37.21 7.05L37.21 7.05Q36.96 6.79 36.74 6.79L36.74 6.79L36.74 6.79Q36.53 6.79 35.94 7.38L35.94 7.38ZM46.44 12.75L44.51 12.75L44.51 2.95L46.44 2.95L46.44 12.75ZM47.80 6.89L47.80 6.89Q47.91 6.54 48.67 5.79L48.67 5.79L48.67 5.79Q49.43 5.04 49.80 5.04L49.80 5.04L49.80 5.04Q50.16 5.04 51.04 5.80L51.04 5.80L51.04 5.11L51.04 5.11Q51.04 4.40 50.88 4.02L50.88 4.02L50.88 4.02Q50.71 3.64 50.34 3.33L50.34 3.33L51.88 2.25L51.88 2.25Q52.89 3.05 52.89 4.51L52.89 4.51L52.89 12.75L51.46 12.75L51.30 11.93L51.30 11.93Q50.27 12.92 49.77 12.92L49.77 12.92L49.77 12.92Q49.43 12.92 48.67 12.17L48.67 12.17L48.67 12.17Q47.91 11.42 47.80 11.07L47.80 11.07L47.80 11.07Q47.64 10.72 47.64 8.98L47.64 8.98L47.64 8.98Q47.64 7.24 47.80 6.89L47.80 6.89ZM50.95 7.34L50.95 7.34L50.95 7.34Q50.85 7.17 50.55 6.98L50.55 6.98L50.55 6.98Q50.25 6.79 50.09 6.79L50.09 6.79L50.09 6.79Q49.94 6.79 49.76 6.97L49.76 6.97L49.76 6.97Q49.59 7.15 49.50 7.35L49.50 7.35L49.50 7.35Q49.42 7.55 49.42 8.98L49.42 8.98L49.42 8.98Q49.42 10.42 49.50 10.61L49.50 10.61L49.50 10.61Q49.59 10.79 49.76 10.98L49.76 10.98L49.76 10.98Q49.94 11.17 50.09 11.17L50.09 11.17L50.09 11.17Q50.23 11.17 50.53 10.98L50.53 10.98L50.53 10.98Q50.83 10.79 50.93 10.65L50.93 10.65L50.93 10.65Q51.02 10.46 51.04 9.52L51.04 9.52L51.04 9.00L51.04 9.00Q51.04 7.52 50.95 7.34ZM57.16 8.51L57.16 8.51L57.16 7.20L57.16 7.20Q57.16 5.45 57.44 4.96L57.44 4.96L57.44 4.96Q57.72 4.47 58.64 3.63L58.64 3.63L58.64 3.63Q59.56 2.79 60.00 2.79L60.00 2.79L60.00 2.79Q60.77 2.79 61.77 3.67L61.77 3.67L61.77 3.67Q62.76 4.56 63.03 5.63L63.03 5.63L61.47 6.71L61.47 6.71Q61.25 5.95 60.76 5.31L60.76 5.31L60.76 5.31Q60.27 4.68 60.07 4.68L60.07 4.68L60.07 4.68Q59.72 4.68 59.28 5.36L59.28 5.36L59.28 5.36Q59.09 5.63 59.09 7.20L59.09 7.20L59.09 8.51L59.09 8.51Q59.09 10.12 59.28 10.35L59.28 10.35L59.28 10.35Q59.72 11.03 60.07 11.03L60.07 11.03L60.07 11.03Q60.27 11.03 60.76 10.48L60.76 10.48L60.76 10.48Q61.25 9.93 61.47 9.25L61.47 9.25L63.03 10.35L63.03 10.35Q62.76 11.31 61.77 12.12L61.77 12.12L61.77 12.12Q60.77 12.92 60.00 12.92L60.00 12.92L60.00 12.92Q59.56 12.92 58.64 12.08L58.64 12.08L58.64 12.08Q57.72 11.24 57.44 10.75L57.44 10.75L57.44 10.75Q57.16 10.26 57.16 8.51ZM66.28 7.38L66.28 12.75L64.43 12.75L64.43 5.11L64.43 5.11Q64.43 4.40 64.26 4.02L64.26 4.02L64.26 4.02Q64.09 3.64 63.73 3.33L63.73 3.33L65.27 2.25L65.27 2.25Q66.28 3.05 66.28 4.51L66.28 4.51L66.28 5.81L66.28 5.81Q67.14 5.04 67.54 5.04L67.54 5.04L67.54 5.04Q67.93 5.04 68.79 5.82L68.79 5.82L68.79 5.82Q69.65 6.59 69.65 7.35L69.65 7.35L69.65 10.05L69.65 10.05Q69.65 10.77 69.82 11.16L69.82 11.16L69.82 11.16Q69.99 11.55 70.35 11.84L70.35 11.84L68.81 12.92L68.81 12.92Q67.80 12.12 67.80 10.65L67.80 10.65L67.80 7.55L67.80 7.55Q67.80 7.31 67.55 7.05L67.55 7.05L67.55 7.05Q67.30 6.79 67.08 6.79L67.08 6.79L67.08 6.79Q66.86 6.79 66.28 7.38L66.28 7.38ZM76.22 8.96L76.22 8.96L76.22 9.46L72.83 9.46L72.83 9.46Q72.83 10.30 73.04 10.79L73.04 10.79L73.04 10.79Q73.11 10.96 73.29 11.14L73.29 11.14L73.29 11.14Q73.47 11.31 73.67 11.31L73.67 11.31L73.67 11.31Q73.86 11.31 74.16 10.98L74.16 10.98L74.16 10.98Q74.45 10.64 74.62 10.16L74.62 10.16L76.06 11.19L76.06 11.19Q75.68 11.89 74.91 12.40L74.91 12.40L74.91 12.40Q74.13 12.92 73.65 12.92L73.65 12.92L73.65 12.92Q73.18 12.92 72.28 12.18L72.28 12.18L72.28 12.18Q71.37 11.44 71.18 11.02L71.18 11.02L71.18 11.02Q70.98 10.61 70.98 8.98L70.98 8.98L70.98 8.98Q70.98 7.35 71.18 6.94L71.18 6.94L71.18 6.94Q71.37 6.52 72.28 5.78L72.28 5.78L72.28 5.78Q73.18 5.04 73.60 5.04L73.60 5.04L73.60 5.04Q74.02 5.04 74.92 5.78L74.92 5.78L74.92 5.78Q75.82 6.52 76.02 6.94L76.02 6.94L76.02 6.94Q76.22 7.35 76.22 8.96ZM74.28 7.20L74.28 7.20L74.28 7.20Q74.17 7.01 73.96 6.83L73.96 6.83L73.96 6.83Q73.74 6.65 73.55 6.65L73.55 6.65L73.55 6.65Q73.36 6.65 73.12 7.02L73.12 7.02L73.12 7.02Q72.88 7.39 72.83 8.13L72.83 8.13L74.42 8.13L74.42 8.13Q74.38 7.39 74.28 7.20ZM77.49 11.21L77.49 11.21L77.49 11.21Q77.20 10.75 77.20 8.99L77.20 8.99L77.20 8.99Q77.20 7.22 77.49 6.75L77.49 6.75L77.49 6.75Q77.70 6.40 78.53 5.72L78.53 5.72L78.53 5.72Q79.35 5.04 79.81 5.04L79.81 5.04L79.81 5.04Q80.26 5.04 81.04 5.58L81.04 5.58L81.04 5.58Q81.82 6.12 82.21 6.80L82.21 6.80L80.77 7.80L80.77 7.80Q80.58 7.46 80.27 7.06L80.27 7.06L80.27 7.06Q79.95 6.65 79.80 6.65L79.80 6.65L79.80 6.65Q79.52 6.65 79.16 7.24L79.16 7.24L79.16 7.24Q78.97 7.60 78.97 8.98L78.97 8.98L78.97 8.98Q78.97 10.36 79.16 10.72L79.16 10.72L79.16 10.72Q79.27 10.91 79.45 11.11L79.45 11.11L79.45 11.11Q79.63 11.31 79.81 11.31L79.81 11.31L79.81 11.31Q80.00 11.31 80.29 10.99L80.29 10.99L80.29 10.99Q80.58 10.67 80.77 10.16L80.77 10.16L82.21 11.17L82.21 11.17Q81.83 11.87 81.05 12.40L81.05 12.40L81.05 12.40Q80.28 12.92 79.81 12.92L79.81 12.92L79.81 12.92Q79.35 12.92 78.53 12.24L78.53 12.24L78.53 12.24Q77.70 11.56 77.49 11.21ZM85.12 7.66L85.12 12.75L83.27 12.75L83.27 5.11L83.27 5.11Q83.27 4.40 83.10 4.02L83.10 4.02L83.10 4.02Q82.94 3.64 82.57 3.33L82.57 3.33L84.11 2.25L84.11 2.25Q85.12 3.05 85.12 4.51L85.12 4.51L85.12 6.10L85.12 6.10Q86.21 5.04 86.58 5.04L86.58 5.04L86.58 5.04Q86.94 5.04 87.86 5.84L87.86 5.84L87.86 5.84Q88.79 6.64 88.82 7.08L88.82 7.08L88.82 7.08Q88.82 7.41 88.38 8.18L88.38 8.18L88.38 8.18Q87.93 8.95 87.53 9.35L87.53 9.35L87.53 9.35Q88.55 10.61 88.83 11.69L88.83 11.69L87.07 12.92L87.07 12.92Q86.74 11.79 86.39 11.04L86.39 11.04L86.39 11.04Q86.04 10.29 85.41 9.63L85.41 9.63L85.41 9.14L85.41 9.14Q85.85 8.83 86.34 8.24L86.34 8.24L86.34 8.24Q86.83 7.64 86.90 7.32L86.90 7.32L86.90 7.32Q86.51 6.79 86.23 6.79L86.23 6.79L86.23 6.79Q86.07 6.79 85.72 7.09L85.72 7.09L85.72 7.09Q85.36 7.39 85.12 7.66L85.12 7.66ZM95.06 8.96L95.06 8.96L95.06 9.46L91.67 9.46L91.67 9.46Q91.67 10.30 91.88 10.79L91.88 10.79L91.88 10.79Q91.95 10.96 92.13 11.14L92.13 11.14L92.13 11.14Q92.32 11.31 92.51 11.31L92.51 11.31L92.51 11.31Q92.71 11.31 93.00 10.98L93.00 10.98L93.00 10.98Q93.30 10.64 93.46 10.16L93.46 10.16L94.91 11.19L94.91 11.19Q94.53 11.89 93.75 12.40L93.75 12.40L93.75 12.40Q92.97 12.92 92.50 12.92L92.50 12.92L92.50 12.92Q92.02 12.92 91.12 12.18L91.12 12.18L91.12 12.18Q90.22 11.44 90.02 11.02L90.02 11.02L90.02 11.02Q89.82 10.61 89.82 8.98L89.82 8.98L89.82 8.98Q89.82 7.35 90.02 6.94L90.02 6.94L90.02 6.94Q90.22 6.52 91.12 5.78L91.12 5.78L91.12 5.78Q92.02 5.04 92.44 5.04L92.44 5.04L92.44 5.04Q92.86 5.04 93.77 5.78L93.77 5.78L93.77 5.78Q94.67 6.52 94.86 6.94L94.86 6.94L94.86 6.94Q95.06 7.35 95.06 8.96ZM93.12 7.20L93.12 7.20L93.12 7.20Q93.02 7.01 92.80 6.83L92.80 6.83L92.80 6.83Q92.58 6.65 92.39 6.65L92.39 6.65L92.39 6.65Q92.20 6.65 91.97 7.02L91.97 7.02L91.97 7.02Q91.73 7.39 91.67 8.13L91.67 8.13L93.27 8.13L93.27 8.13Q93.23 7.39 93.12 7.20ZM98.38 7.38L98.38 12.75L96.53 12.75L96.53 7.92L96.53 7.92Q96.53 7.21 96.36 6.81L96.36 6.81L96.36 6.81Q96.18 6.41 95.83 6.12L95.83 6.12L97.37 5.04L97.37 5.04Q97.87 5.46 98.14 6.02L98.14 6.02L98.14 6.02Q99.18 5.04 99.60 5.04L99.60 5.04L99.60 5.04Q99.88 5.04 100.45 5.56L100.45 5.56L100.45 5.56Q101.02 6.08 101.12 6.69L101.12 6.69L99.62 7.77L99.62 7.77Q99.61 7.43 99.46 7.11L99.46 7.11L99.46 7.11Q99.32 6.79 99.20 6.79L99.20 6.79L99.20 6.79Q98.97 6.79 98.38 7.38L98.38 7.38Z"></path></g><!----><g data-v-423bf9ae="" id="436e6a47-3094-4617-98bb-ec07bacd8829" transform="matrix(1.084733412000868,0,0,1.084733412000868,-2.0070366787229403,-16.236026918193474)" stroke="none" fill="black"><path d="M114.156 15.188l-5.469 5.844L43.781 89.97 19.593 66.282l-5.719-5.594L2.686 72.126l5.719 5.594 30 29.406 5.813 5.688 5.594-5.938 70.5-74.906 5.5-5.813-11.656-10.969z"></path></g><!----></svg>